<svg width="180" height="180" viewBox="0 0 180 180" fill="none" xmlns="http://www.w3.org/2000/svg">
  <rect width="180" height="180" rx="44" fill="#fff7f2"/>
  <circle cx="126" cy="42" r="58" fill="#ffd4c8" opacity="0.72"/>
  <path d="M90 135S39 108.1 39 69.9C39 53.4 52.4 39.8 68.8 39.8c9.6 0 17.2 4.5 21.2 11.8 4-7.3 11.6-11.8 21.2-11.8 16.4 0 29.8 13.6 29.8 30.1C141 108.1 90 135 90 135Z" fill="#f46f64"/>
  <path d="M90 116.7S58.2 100 58.2 76.2c0-10.4 8.4-19 18.6-19 6 0 10.8 2.8 13.2 7.4 2.5-4.6 7.3-7.4 13.3-7.4 10.2 0 18.5 8.6 18.5 19 0 23.8-31.8 40.5-31.8 40.5Z" fill="#7a2332" opacity="0.2"/>
</svg>
